<mxfile host="app.diagrams.net" modified="2024-04-28T15:30:55.617Z" agent="Mozilla/5.0 (Windows NT 10.0; Win64; x64; rv:124.0) Gecko/20100101 Firefox/124.0" etag="ngCqjJ6AIRjRg5A697QR" version="24.3.1" type="device">
  <diagram name="PÃ¡gina-1" id="C-PClh7iX6JLdaMJABn4">
    <mxGraphModel dx="2391" dy="1171" grid="1" gridSize="10" guides="1" tooltips="1" connect="1" arrows="1" fold="1" page="1" pageScale="1" pageWidth="827" pageHeight="1169" math="0" shadow="0">
      <root>
        <mxCell id="0" />
        <mxCell id="1" parent="0" />
        <mxCell id="btwXwhFbfHhYjiDrisWu-186" value="Client Menu:&lt;br&gt;&lt;br&gt;&lt;div&gt;1 - View products&lt;br&gt;&lt;/div&gt;&lt;div&gt;2 - View cart&lt;br&gt;3 - View orders&lt;br&gt;&lt;/div&gt;&lt;br&gt;0 - Logout" style="rounded=1;whiteSpace=wrap;html=1;align=left;spacingLeft=12;" vertex="1" parent="1">
          <mxGeometry x="690" y="530" width="200" height="160" as="geometry" />
        </mxCell>
        <mxCell id="btwXwhFbfHhYjiDrisWu-187" value="" style="edgeStyle=orthogonalEdgeStyle;rounded=0;orthogonalLoop=1;jettySize=auto;html=1;" edge="1" parent="1">
          <mxGeometry relative="1" as="geometry">
            <mxPoint x="1010" y="330.0434782608696" as="sourcePoint" />
            <Array as="points">
              <mxPoint x="1010" y="370" />
              <mxPoint x="790" y="370" />
            </Array>
            <mxPoint x="790.04347826087" y="530" as="targetPoint" />
          </mxGeometry>
        </mxCell>
        <mxCell id="btwXwhFbfHhYjiDrisWu-188" value="1" style="edgeLabel;html=1;align=center;verticalAlign=middle;resizable=0;points=[];" vertex="1" connectable="0" parent="btwXwhFbfHhYjiDrisWu-187">
          <mxGeometry x="-0.6117" y="-1" relative="1" as="geometry">
            <mxPoint x="-169" y="11" as="offset" />
          </mxGeometry>
        </mxCell>
        <mxCell id="btwXwhFbfHhYjiDrisWu-189" value="&lt;div&gt;Main Menu:&lt;/div&gt;&lt;div&gt;&lt;br&gt;&lt;/div&gt;1 -Login&lt;br&gt;&lt;div&gt;2 - Register&lt;br&gt;&lt;/div&gt;&lt;div&gt;&lt;br&gt;&lt;/div&gt;0 - Exit" style="rounded=1;whiteSpace=wrap;html=1;align=left;spacingLeft=12;" vertex="1" parent="1">
          <mxGeometry x="980" y="290" width="200" height="160" as="geometry" />
        </mxCell>
        <mxCell id="btwXwhFbfHhYjiDrisWu-190" value="Menu Products:&lt;br&gt;&lt;div&gt;&lt;br&gt;&lt;/div&gt;&lt;div&gt;(products list)&lt;br&gt;&lt;/div&gt;&lt;div&gt;&lt;br&gt;&lt;/div&gt;&lt;div&gt;1 - Add to cart&lt;/div&gt;&lt;div&gt;2 - View cart&lt;/div&gt;&lt;br&gt;0 - Go back" style="rounded=1;whiteSpace=wrap;html=1;align=left;spacingLeft=12;" vertex="1" parent="1">
          <mxGeometry x="1240" y="510" width="200" height="160" as="geometry" />
        </mxCell>
        <mxCell id="btwXwhFbfHhYjiDrisWu-191" value="" style="edgeStyle=orthogonalEdgeStyle;rounded=0;orthogonalLoop=1;jettySize=auto;html=1;" edge="1" parent="1" source="btwXwhFbfHhYjiDrisWu-186" target="btwXwhFbfHhYjiDrisWu-190">
          <mxGeometry relative="1" as="geometry">
            <mxPoint x="1010" y="510" as="sourcePoint" />
            <Array as="points">
              <mxPoint x="1060" y="650" />
              <mxPoint x="1060" y="650" />
            </Array>
            <mxPoint x="1010" y="630" as="targetPoint" />
          </mxGeometry>
        </mxCell>
        <mxCell id="btwXwhFbfHhYjiDrisWu-192" value="1" style="edgeLabel;html=1;align=center;verticalAlign=middle;resizable=0;points=[];" vertex="1" connectable="0" parent="btwXwhFbfHhYjiDrisWu-191">
          <mxGeometry x="-0.6117" y="-1" relative="1" as="geometry">
            <mxPoint x="86" y="11" as="offset" />
          </mxGeometry>
        </mxCell>
        <mxCell id="btwXwhFbfHhYjiDrisWu-193" value="&lt;div&gt;Menu Cart:&lt;/div&gt;&lt;div&gt;&lt;br&gt;&lt;/div&gt;&lt;div&gt;(products in cart)&lt;br&gt;&lt;/div&gt;&lt;br&gt;&lt;div&gt;1 - Delete product&lt;br&gt;&lt;/div&gt;&lt;div&gt;2 - Checkout&lt;/div&gt;&lt;div&gt;&lt;br&gt;&lt;/div&gt;0 - Go back" style="rounded=1;whiteSpace=wrap;html=1;align=left;spacingLeft=12;" vertex="1" parent="1">
          <mxGeometry x="1180" y="830" width="200" height="160" as="geometry" />
        </mxCell>
        <mxCell id="btwXwhFbfHhYjiDrisWu-194" value="" style="edgeStyle=orthogonalEdgeStyle;rounded=0;orthogonalLoop=1;jettySize=auto;html=1;" edge="1" parent="1" source="btwXwhFbfHhYjiDrisWu-190" target="btwXwhFbfHhYjiDrisWu-193">
          <mxGeometry relative="1" as="geometry">
            <mxPoint x="1280" y="730" as="sourcePoint" />
            <Array as="points">
              <mxPoint x="1280" y="750" />
              <mxPoint x="1280" y="750" />
            </Array>
            <mxPoint x="1214.99" y="770" as="targetPoint" />
          </mxGeometry>
        </mxCell>
        <mxCell id="btwXwhFbfHhYjiDrisWu-195" value="2" style="edgeLabel;html=1;align=center;verticalAlign=middle;resizable=0;points=[];" vertex="1" connectable="0" parent="btwXwhFbfHhYjiDrisWu-194">
          <mxGeometry x="-0.6117" y="-1" relative="1" as="geometry">
            <mxPoint x="11" y="37" as="offset" />
          </mxGeometry>
        </mxCell>
        <mxCell id="btwXwhFbfHhYjiDrisWu-196" value="0" style="edgeStyle=orthogonalEdgeStyle;rounded=0;orthogonalLoop=1;jettySize=auto;html=1;exitX=-0.011;exitY=0.192;exitDx=0;exitDy=0;exitPerimeter=0;" edge="1" parent="1" source="btwXwhFbfHhYjiDrisWu-193">
          <mxGeometry x="-0.2" y="-10" relative="1" as="geometry">
            <mxPoint x="1140" y="850" as="sourcePoint" />
            <Array as="points">
              <mxPoint x="1140" y="861" />
              <mxPoint x="840" y="860" />
            </Array>
            <mxPoint x="840" y="690" as="targetPoint" />
            <mxPoint as="offset" />
          </mxGeometry>
        </mxCell>
        <mxCell id="btwXwhFbfHhYjiDrisWu-197" value="0" style="edgeStyle=orthogonalEdgeStyle;rounded=0;orthogonalLoop=1;jettySize=auto;html=1;exitX=0.75;exitY=0;exitDx=0;exitDy=0;" edge="1" parent="1" source="btwXwhFbfHhYjiDrisWu-186" target="btwXwhFbfHhYjiDrisWu-189">
          <mxGeometry y="-10" relative="1" as="geometry">
            <mxPoint x="900" y="530" as="sourcePoint" />
            <Array as="points">
              <mxPoint x="840" y="410" />
            </Array>
            <mxPoint x="900" y="410" as="targetPoint" />
            <mxPoint as="offset" />
          </mxGeometry>
        </mxCell>
        <mxCell id="btwXwhFbfHhYjiDrisWu-198" value="0" style="edgeStyle=orthogonalEdgeStyle;rounded=0;orthogonalLoop=1;jettySize=auto;html=1;" edge="1" parent="1" source="btwXwhFbfHhYjiDrisWu-190" target="btwXwhFbfHhYjiDrisWu-186">
          <mxGeometry y="-10" relative="1" as="geometry">
            <mxPoint x="1030.03" y="620" as="sourcePoint" />
            <Array as="points">
              <mxPoint x="1110" y="570" />
              <mxPoint x="1110" y="570" />
            </Array>
            <mxPoint x="1030.03" y="500" as="targetPoint" />
            <mxPoint as="offset" />
          </mxGeometry>
        </mxCell>
        <mxCell id="btwXwhFbfHhYjiDrisWu-199" value="" style="edgeStyle=orthogonalEdgeStyle;rounded=0;orthogonalLoop=1;jettySize=auto;html=1;entryX=0.006;entryY=0.627;entryDx=0;entryDy=0;entryPerimeter=0;" edge="1" parent="1" target="btwXwhFbfHhYjiDrisWu-193">
          <mxGeometry relative="1" as="geometry">
            <mxPoint x="740" y="690" as="sourcePoint" />
            <Array as="points">
              <mxPoint x="760" y="690" />
              <mxPoint x="760" y="930" />
              <mxPoint x="1177" y="930" />
            </Array>
            <mxPoint x="1170" y="930" as="targetPoint" />
          </mxGeometry>
        </mxCell>
        <mxCell id="btwXwhFbfHhYjiDrisWu-200" value="2" style="edgeLabel;html=1;align=center;verticalAlign=middle;resizable=0;points=[];" vertex="1" connectable="0" parent="btwXwhFbfHhYjiDrisWu-199">
          <mxGeometry x="-0.6117" y="-1" relative="1" as="geometry">
            <mxPoint x="201" y="106" as="offset" />
          </mxGeometry>
        </mxCell>
        <mxCell id="btwXwhFbfHhYjiDrisWu-201" value="" style="edgeStyle=orthogonalEdgeStyle;rounded=0;orthogonalLoop=1;jettySize=auto;html=1;exitX=-0.013;exitY=0.565;exitDx=0;exitDy=0;exitPerimeter=0;entryX=0.519;entryY=-0.005;entryDx=0;entryDy=0;entryPerimeter=0;" edge="1" parent="1" target="btwXwhFbfHhYjiDrisWu-203">
          <mxGeometry relative="1" as="geometry">
            <mxPoint x="690.0000000000006" y="570.0300000000001" as="sourcePoint" />
            <Array as="points">
              <mxPoint x="583" y="570" />
              <mxPoint x="583" y="969" />
            </Array>
            <mxPoint x="582.6" y="1049.63" as="targetPoint" />
          </mxGeometry>
        </mxCell>
        <mxCell id="btwXwhFbfHhYjiDrisWu-202" value="2" style="edgeLabel;html=1;align=center;verticalAlign=middle;resizable=0;points=[];" vertex="1" connectable="0" parent="btwXwhFbfHhYjiDrisWu-201">
          <mxGeometry x="-0.6117" y="-1" relative="1" as="geometry">
            <mxPoint x="201" y="106" as="offset" />
          </mxGeometry>
        </mxCell>
        <mxCell id="btwXwhFbfHhYjiDrisWu-203" value="&lt;div&gt;Menu Orders:&lt;/div&gt;&lt;div&gt;&lt;br&gt;&lt;/div&gt;&lt;div&gt;(List of orders)&lt;br&gt;&lt;/div&gt;&lt;br&gt;&lt;div&gt;1 - Delete an order&lt;br&gt;&lt;/div&gt;&lt;div&gt;&lt;br&gt;&lt;/div&gt;0 - Go back" style="rounded=1;whiteSpace=wrap;html=1;align=left;spacingLeft=12;" vertex="1" parent="1">
          <mxGeometry x="480" y="970" width="200" height="160" as="geometry" />
        </mxCell>
        <mxCell id="btwXwhFbfHhYjiDrisWu-204" value="3" style="edgeLabel;html=1;align=center;verticalAlign=middle;resizable=0;points=[];" vertex="1" connectable="0" parent="1">
          <mxGeometry x="790.04347826087" y="742.9478257347921" as="geometry">
            <mxPoint x="-203" y="41" as="offset" />
          </mxGeometry>
        </mxCell>
        <mxCell id="btwXwhFbfHhYjiDrisWu-205" value="-" style="edgeStyle=orthogonalEdgeStyle;rounded=0;orthogonalLoop=1;jettySize=auto;html=1;entryX=0.199;entryY=0.001;entryDx=0;entryDy=0;entryPerimeter=0;" edge="1" parent="1" source="btwXwhFbfHhYjiDrisWu-189" target="btwXwhFbfHhYjiDrisWu-186">
          <mxGeometry x="-0.9566" y="-90" relative="1" as="geometry">
            <mxPoint x="979.96" y="280.00347826086966" as="sourcePoint" />
            <Array as="points">
              <mxPoint x="730" y="320" />
            </Array>
            <mxPoint x="730" y="520" as="targetPoint" />
            <mxPoint as="offset" />
          </mxGeometry>
        </mxCell>
        <mxCell id="btwXwhFbfHhYjiDrisWu-206" value="2" style="edgeLabel;html=1;align=center;verticalAlign=middle;resizable=0;points=[];" vertex="1" connectable="0" parent="btwXwhFbfHhYjiDrisWu-205">
          <mxGeometry x="-0.6117" y="-1" relative="1" as="geometry">
            <mxPoint x="-150" y="11" as="offset" />
          </mxGeometry>
        </mxCell>
      </root>
    </mxGraphModel>
  </diagram>
</mxfile>
